<svg width="117" height="76" viewBox="0 0 117 76" fill="none" xmlns="http://www.w3.org/2000/svg">
<g clip-path="url(#clip0_1295_156)">
<path d="M76.9711 28.6687V31.4487H70.0111V34.3287H76.2711V36.9887H70.0111V39.8887H77.1911V42.6487H66.8911V28.6687H76.9711ZM84.4771 31.0887C83.9571 31.0887 83.5437 31.2153 83.2371 31.4687C82.9437 31.7087 82.7971 32.0353 82.7971 32.4487C82.7971 32.8487 82.9771 33.1687 83.3371 33.4087C83.7104 33.6487 84.5571 33.9353 85.8771 34.2687C87.2104 34.5887 88.2437 35.0753 88.9771 35.7287C89.7104 36.382 90.0771 37.3353 90.0771 38.5887C90.0771 39.842 89.6037 40.862 88.6571 41.6487C87.7237 42.422 86.4904 42.8087 84.9571 42.8087C82.7437 42.8087 80.7504 41.9887 78.9771 40.3487L80.8371 38.0687C82.3437 39.3887 83.7371 40.0487 85.0171 40.0487C85.5904 40.0487 86.0371 39.9287 86.3571 39.6887C86.6904 39.4353 86.8571 39.102 86.8571 38.6887C86.8571 38.262 86.6837 37.9287 86.3371 37.6887C85.9904 37.4353 85.3037 37.182 84.2771 36.9287C82.6504 36.542 81.4571 36.042 80.6971 35.4287C79.9504 34.802 79.5771 33.8287 79.5771 32.5087C79.5771 31.1753 80.0504 30.1487 80.9971 29.4287C81.9571 28.7087 83.1504 28.3487 84.5771 28.3487C85.5104 28.3487 86.4437 28.5087 87.3771 28.8287C88.3104 29.1487 89.1237 29.602 89.8171 30.1887L88.2371 32.4687C87.0237 31.5487 85.7704 31.0887 84.4771 31.0887ZM101.811 35.5287H104.951V40.4887C103.564 42.0353 101.644 42.8087 99.191 42.8087C97.1377 42.8087 95.411 42.1287 94.011 40.7687C92.6243 39.4087 91.931 37.6953 91.931 35.6287C91.931 33.5487 92.6377 31.8153 94.051 30.4287C95.4777 29.042 97.191 28.3487 99.191 28.3487C101.204 28.3487 102.951 29.0087 104.431 30.3287L102.811 32.6687C102.184 32.122 101.604 31.7487 101.071 31.5487C100.551 31.3353 99.9843 31.2287 99.371 31.2287C98.1843 31.2287 97.1843 31.6353 96.371 32.4487C95.5577 33.2487 95.151 34.3087 95.151 35.6287C95.151 36.9487 95.5377 38.0087 96.311 38.8087C97.0977 39.5953 98.031 39.9887 99.111 39.9887C100.191 39.9887 101.091 39.782 101.811 39.3687V35.5287Z" fill="black"/>
<path d="M31.7108 66.7568C23.6094 66.7568 15.8397 63.5126 10.1112 57.7379C4.38259 51.9631 1.16431 44.1308 1.16431 35.9641H32.1177V66.7232C31.9843 66.7568 31.8509 66.7568 31.7108 66.7568Z" fill="#EB2127"/>
<path d="M65 3.2481C65 11.4137 61.7827 19.2449 56.0555 25.0195C50.3284 30.7941 42.5605 34.0391 34.4602 34.0409V2.83789H64.9934C65 2.97239 65 3.11361 65 3.2481Z" fill="#EB2127"/>
<path d="M20.7762 24.8745C20.6495 25.8631 20.7229 28.822 22.444 30.7923C22.9545 31.4323 23.5975 31.9522 24.328 32.3158C25.0585 32.6793 25.8589 32.8778 26.6734 32.8972C27.1428 32.8772 27.6064 32.7842 28.0476 32.6215C27.6835 30.7785 26.8331 29.0687 25.586 27.672C24.2538 26.3306 22.5951 25.3659 20.7762 24.8745Z" fill="#EB2127"/>
<path d="M32.1174 28.0825V21.3577C31.9828 21.037 31.8291 20.7249 31.6571 20.423C29.2622 16.2738 24.1856 13.6982 19.8828 13.6982C17.3399 13.6847 14.8457 14.4007 12.6914 15.7627C11.8375 16.879 10.2965 20.7256 10.2965 23.5634C10.2812 25.2049 10.5405 26.8373 11.0637 28.3918C11.3772 23.7181 12.3979 22.4606 12.8315 21.4989C13.2712 20.348 13.554 19.1422 13.6721 17.9146C13.6427 17.4267 13.5485 16.9449 13.3919 16.4822C16.6006 14.4177 18.8688 15.2987 19.9428 15.8098C21.0397 16.4459 21.8643 17.4687 22.2576 18.6812C22.7459 19.6607 23.4737 20.4985 24.3723 21.1156C23.4571 21.6891 22.3543 21.8751 21.3037 21.6334C22.4911 21.472 22.6712 20.9609 22.6712 20.9609C21.5839 20.2885 21.4638 19.6563 21.0902 18.688C20.8013 18.0482 20.3295 17.51 19.7353 17.1422C19.141 16.7744 18.4514 16.5938 17.7547 16.6235C16.8087 16.5901 15.8803 16.8871 15.1263 17.4641C15.2197 19.8581 14.9863 20.349 13.7321 23.5163C12.478 26.6837 12.9916 31.0212 13.7321 32.615C13.9525 33.0534 14.2357 33.4567 14.5727 33.812H23.6385C20.1496 31.9963 19.229 28.2573 19.229 26.334C19.241 25.276 19.3821 24.2235 19.6493 23.2003C27.5811 23.8997 29.5157 31.3507 29.5157 31.3507C30.6662 30.525 31.5668 29.3936 32.1174 28.0825ZM19.776 19.1452C19.6441 19.1452 19.5151 19.1058 19.4054 19.0319C19.2957 18.958 19.2102 18.853 19.1597 18.7301C19.1092 18.6072 19.096 18.472 19.1217 18.3416C19.1475 18.2111 19.211 18.0913 19.3043 17.9973C19.3976 17.9032 19.5165 17.8392 19.6459 17.8132C19.7753 17.7873 19.9094 17.8006 20.0313 17.8515C20.1532 17.9024 20.2574 17.9886 20.3307 18.0992C20.404 18.2097 20.4431 18.3398 20.4431 18.4728C20.4431 18.6511 20.3728 18.8222 20.2477 18.9483C20.1226 19.0744 19.953 19.1452 19.776 19.1452Z" fill="#EB2127"/>
<path d="M7.83531 23.6846C7.83531 23.6846 7.83531 17.6323 10.9507 13.853C10.9507 13.853 14.0994 11.3446 19.8898 11.3446C25.3133 11.3446 29.2292 13.8462 32.1244 16.9329V3.05298H31.7175C23.6172 3.0512 15.8479 6.29279 10.1182 12.0648C4.38861 17.8369 1.16784 25.6667 1.16431 33.8323H11.3109C9.07719 30.9269 7.85565 27.3603 7.83531 23.6846Z" fill="#EB2127"/>
<path d="M29.6963 33.8323H32.1179V32.1914C31.3945 32.8547 30.5787 33.4075 29.6963 33.8323Z" fill="#EB2127"/>
</g>
<defs>
<clipPath id="clip0_1295_156">
<rect width="117" height="76" fill="white"/>
</clipPath>
</defs>
</svg>
