<svg width="101" height="28" viewBox="0 0 101 28" fill="none" xmlns="http://www.w3.org/2000/svg">
<path d="M22.3168 22.9139C21.7934 23.7919 21.1372 24.5875 20.3702 25.2737C19.5601 25.998 18.6398 26.5951 17.6422 27.0437C16.8344 27.4212 15.9753 27.6837 15.0912 27.823C14.4608 27.9341 13.822 27.9933 13.1815 28C10.8926 27.9789 8.67212 27.2351 6.85161 25.8796C4.67278 24.2781 2.91047 22.198 1.70723 19.8077C1.04534 18.4815 0.575991 17.0717 0.312734 15.6189C0.178995 14.9408 0.0950341 14.2543 0.0614941 13.5646C0.0482073 13.1345 -0.00856227 12.7044 0.0011008 12.2755C0.0308626 11.1551 0.166928 10.0398 0.407552 8.94397C0.703188 7.55037 1.1895 6.20199 1.85339 4.93513C2.22843 4.23012 2.6832 3.56521 3.10778 2.88615C3.24521 2.67689 3.44354 2.51254 3.67729 2.41419C4.64725 1.94531 5.6482 1.54028 6.67345 1.2018C7.85177 0.825878 9.06026 0.547031 10.2862 0.368178C11.2391 0.235633 12.2027 0.192354 13.164 0.238961C13.7613 0.265509 14.355 0.365215 14.9493 0.442501C16.6692 0.691818 18.3313 1.23291 19.8605 2.04133C21.1295 2.68887 22.3232 3.46841 23.4208 4.36639C24.3979 5.14066 25.2754 6.02776 26.034 7.00827C26.7789 7.98507 27.3638 9.069 27.7679 10.2213C28.0667 11.0308 28.2614 11.8734 28.3477 12.7298C28.3982 13.3422 28.3836 13.9581 28.3042 14.5676C28.1471 15.76 27.7821 16.9173 27.225 17.9894C26.5619 19.2922 25.6497 20.4589 24.5374 21.4266C24.2055 21.7103 23.856 21.9737 23.4908 22.2153C23.1291 22.4537 22.7419 22.662 22.3168 22.9139ZM22.3892 20.318C22.5359 20.2384 22.6782 20.1514 22.8156 20.0572C23.4418 19.5651 23.9885 18.9835 24.4372 18.3322C25.4518 16.8755 25.9793 15.1475 25.947 13.3859C25.9313 12.97 25.8834 12.5558 25.8039 12.1469C25.6658 11.2413 25.3412 10.3725 24.8497 9.59294C24.5882 9.18291 24.3146 8.77996 24.0265 8.38763C23.3348 7.42211 22.5103 6.55418 21.5763 5.80828C20.0394 4.58124 18.2597 3.67742 16.3486 3.15341C15.3992 2.88835 14.4231 2.72456 13.4376 2.66492C12.1957 2.59308 10.9494 2.66437 9.72456 2.87731C8.07734 3.21464 6.48049 3.75443 4.97214 4.4838C4.87732 4.66079 4.79881 4.8431 4.69011 5.00652C4.10282 5.89608 3.6208 6.84789 3.25332 7.84368C2.83015 8.97048 2.57667 10.1513 2.50082 11.3493C2.42556 12.3671 2.44294 13.3894 2.55275 14.4041C2.63297 15.2346 2.8188 16.0522 3.10597 16.8378C3.13133 16.9033 3.16636 16.9652 3.2195 17.0737C3.30669 16.909 3.35673 16.728 3.36626 16.5428C3.41579 16.0378 3.45081 15.5292 3.53959 15.0301C3.69869 14.0922 3.95591 13.1727 4.3072 12.2862C4.65628 11.4254 5.02831 10.5752 5.38403 9.71506C5.77963 8.82649 5.96699 7.86279 5.93241 6.89441C5.90705 6.4543 5.81162 6.01831 5.7464 5.58056C5.72949 5.46728 5.70956 5.35401 5.69265 5.25077C6.11903 5.05785 6.5134 4.87023 6.91503 4.70032C7.57106 4.40543 8.27394 4.22245 8.99319 4.15932C9.80828 4.10813 10.6264 4.19028 11.4138 4.40238C12.1223 4.55382 12.7846 4.86549 13.3474 5.31233C13.9102 5.75916 14.3579 6.32871 14.6545 6.97523C14.8379 7.38127 15.0439 7.77716 15.2718 8.16108C15.6196 8.79881 16.1233 9.34274 16.7381 9.74455C16.8412 9.8197 16.9371 9.90362 17.025 9.9953C16.3969 10.4867 14.6056 10.8608 14.0772 10.577C14.3834 10.298 14.8931 10.3275 15.1558 9.91388C15.0175 9.77642 14.9022 9.65253 14.7765 9.53984C14.3746 9.19108 14.0573 8.75917 13.8477 8.27553C13.7764 8.1068 13.7142 7.93453 13.6454 7.76462C13.4197 7.17105 13.0014 6.66591 12.4544 6.32628C11.9979 6.02754 11.4853 5.82003 10.9463 5.71573C10.4073 5.61144 9.8525 5.61243 9.31388 5.71861C8.71418 5.85864 8.12626 6.04305 7.5552 6.27023C7.45474 6.48544 7.42949 6.72693 7.48334 6.95754C7.55159 7.44864 7.54956 7.94664 7.4773 8.4372C7.38894 9.11006 7.20413 9.76743 6.92831 10.39C6.67345 10.9646 6.40409 11.5333 6.16855 12.1156C5.68768 13.2917 5.39831 14.5341 5.31096 15.7976C5.22933 16.815 5.27292 17.8382 5.4408 18.8454C5.56624 19.617 5.75528 20.3774 6.00609 21.1192C6.30481 22.0336 6.85838 22.8488 7.60473 23.4732C8.16578 23.9377 8.77271 24.3466 9.41655 24.6938C10.5342 25.2894 11.7787 25.6223 13.0511 25.6661C13.799 25.6761 14.5453 25.5969 15.2736 25.4301C16.3513 25.2147 17.3677 24.7717 18.2516 24.1322C18.4582 23.9823 18.6557 23.8206 18.8864 23.6419C18.8247 23.6092 18.76 23.5823 18.6931 23.5617C18.18 23.475 17.6774 23.3366 17.1935 23.1487C16.2668 22.8031 15.4108 22.2984 14.666 21.6584C13.6008 20.7533 12.7772 19.6085 12.2666 18.3227C11.8964 17.4129 11.6869 16.4484 11.6469 15.4702C11.6181 14.7522 11.6763 14.0333 11.8202 13.3286C11.8865 12.8869 12.0419 12.4623 12.2774 12.0797C12.4713 12.1092 12.6561 12.131 12.8385 12.1652C14.0189 12.387 15.1674 12.7482 16.2586 13.2407C17.6211 13.8605 18.8332 14.756 19.8146 15.8679C20.4893 16.63 21.0536 17.479 21.4918 18.3912C21.7382 18.8973 21.9369 19.4248 22.164 19.9404C22.2323 20.07 22.3075 20.1961 22.3892 20.318ZM13.5191 14.0561C13.4832 14.123 13.4539 14.1931 13.4316 14.2655C13.2655 15.2073 13.3246 16.1739 13.6043 17.0897C13.8326 17.829 14.1938 18.5228 14.6708 19.1386C15.0822 19.7196 15.5858 20.2329 16.1626 20.659C17.2164 21.4203 18.5196 21.7772 19.8249 21.6619C20.1007 21.6646 20.3707 21.5841 20.5979 21.4313C20.5891 21.1857 20.5622 20.941 20.5176 20.6991C20.3201 19.9399 20.0291 19.207 19.651 18.5162C19.0457 17.3889 18.1912 16.4073 17.1494 15.6425C16.329 15.0537 15.4309 14.576 14.4794 14.2224C14.1758 14.0983 13.8479 14.0415 13.5191 14.0561Z" fill="#E85451"/>
<path d="M12.0691 7.79954C12.3327 7.79954 12.5465 7.59061 12.5465 7.33288C12.5465 7.07514 12.3327 6.86621 12.0691 6.86621C11.8055 6.86621 11.5917 7.07514 11.5917 7.33288C11.5917 7.59061 11.8055 7.79954 12.0691 7.79954Z" fill="#E85451"/>
<path d="M46.0469 8.2997L43.9748 10.3809C43.4015 9.71878 42.6961 9.18797 41.9056 8.82367C41.115 8.45936 40.2572 8.26989 39.389 8.26781C38.6826 8.2489 37.9798 8.37527 37.3227 8.63932C36.6656 8.90337 36.0679 9.29965 35.5655 9.80433C35.0682 10.285 34.6746 10.8652 34.4094 11.5083C34.1442 12.1514 34.0132 12.8433 34.0248 13.5404C34.0125 14.2604 34.1485 14.975 34.4239 15.6385C34.6992 16.3021 35.108 16.8999 35.6241 17.3937C36.144 17.9119 36.7612 18.3187 37.439 18.5901C38.1168 18.8614 38.8413 18.9917 39.5696 18.9732C40.4699 19.0036 41.3607 18.7782 42.1418 18.3223C42.8919 17.8279 43.4805 17.1182 43.8328 16.2835H39.3558V13.4754H47.1328L47.1539 14.1373C47.1537 15.5114 46.7909 16.8605 46.1031 18.0439C45.4613 19.2143 44.5211 20.1877 43.3811 20.8617C42.1816 21.531 40.8291 21.866 39.4609 21.8327C37.9639 21.8595 36.4853 21.4938 35.1681 20.771C33.9137 20.0663 32.8795 19.0179 32.1834 17.7452C31.4564 16.4556 31.0777 14.9939 31.0854 13.5079C31.0576 11.5043 31.7828 9.56519 33.1135 8.08563C33.8937 7.1876 34.8599 6.47597 35.9428 6.00173C37.0256 5.5275 38.1984 5.3024 39.3769 5.34258C40.6721 5.33242 41.9558 5.59017 43.1498 6.10012C44.2572 6.61788 45.2445 7.36744 46.0469 8.2997Z" fill="#E85451"/>
<path d="M47.5716 9.82548H50.0308V11.2878C50.2582 10.759 50.6255 10.3046 51.0919 9.97516C51.5195 9.68061 52.0248 9.5243 52.5414 9.52676C52.9474 9.53547 53.3461 9.63761 53.7076 9.82548L52.8144 12.3336C52.5597 12.1866 52.2761 12.099 51.984 12.0772C51.7395 12.0961 51.5052 12.184 51.3074 12.3311C51.1096 12.4782 50.9563 12.6786 50.8649 12.9096C50.5601 13.4645 50.4077 14.5532 50.4077 16.1758L50.4179 16.7414V21.4374H47.5697L47.5716 9.82548Z" fill="#E85451"/>
<path d="M61.6704 9.82616H64.5397V21.4387H61.6704V20.2119C61.1836 20.7025 60.6125 21.0985 59.9854 21.3804C59.4043 21.6223 58.7815 21.7439 58.1536 21.738C57.4295 21.7408 56.7131 21.5865 56.0524 21.2856C55.3917 20.9847 54.8018 20.544 54.3222 19.993C53.2405 18.82 52.6593 17.2603 52.7055 15.6539C52.643 14.0338 53.204 12.4527 54.2697 11.2455C54.7439 10.6982 55.3289 10.2613 55.9848 9.96489C56.6407 9.66846 57.3518 9.51945 58.0697 9.52806C58.7337 9.52344 59.3917 9.65792 60.0023 9.92309C60.6292 10.204 61.1962 10.6063 61.6716 11.1075L61.6704 9.82616ZM58.6543 12.2184C58.2401 12.2079 57.8286 12.2878 57.4474 12.4525C57.0662 12.6173 56.7242 12.8631 56.4444 13.1734C55.8463 13.8411 55.5303 14.7206 55.5645 15.6226C55.5313 16.5355 55.853 17.4249 56.4601 18.0988C56.7379 18.4114 57.0785 18.6598 57.4589 18.8273C57.8393 18.9948 58.2506 19.0775 58.6651 19.0698C59.084 19.0811 59.5005 19.0018 59.8869 18.8372C60.2733 18.6725 60.6208 18.4263 60.9064 18.1148C61.5168 17.4324 61.8368 16.5326 61.7966 15.6116C61.8154 15.1631 61.7464 14.7154 61.5936 14.2942C61.4408 13.873 61.2072 13.4869 60.9064 13.1581C60.6169 12.8496 60.2668 12.6065 59.8788 12.4444C59.4908 12.2823 59.0736 12.2049 58.6543 12.2171V12.2184Z" fill="#E85451"/>
<path d="M74.0757 9.82616H76.9444V21.4387H74.0757V20.2119C73.5889 20.7025 73.0178 21.0985 72.3907 21.3804C71.8096 21.6223 71.1869 21.7439 70.5589 21.738C69.8348 21.7408 69.1184 21.5865 68.4577 21.2856C67.797 20.9847 67.2071 20.544 66.7275 19.993C65.6458 18.8201 65.0646 17.2603 65.1108 15.6539C65.0483 14.0338 65.6093 12.4527 66.675 11.2455C67.1492 10.6982 67.7342 10.2613 68.3901 9.96489C69.046 9.66846 69.7572 9.51945 70.475 9.52806C71.1391 9.52344 71.797 9.65792 72.4076 9.92309C73.0345 10.204 73.6015 10.6063 74.0769 11.1075L74.0757 9.82616ZM71.0596 12.2184C70.6454 12.2079 70.2339 12.2878 69.8527 12.4525C69.4715 12.6173 69.1295 12.8631 68.8498 13.1734C68.2516 13.841 67.9356 14.7206 67.9698 15.6226C67.9366 16.5355 68.2583 17.4249 68.8655 18.0988C69.1433 18.4114 69.4838 18.6598 69.8642 18.8273C70.2446 18.9948 70.6559 19.0775 71.0705 19.0698C71.4894 19.0811 71.9058 19.0018 72.2922 18.8372C72.6786 18.6725 73.0261 18.4263 73.3117 18.1148C73.9222 17.4324 74.2422 16.5326 74.2019 15.6116C74.2207 15.1631 74.1517 14.7154 73.9989 14.2942C73.8461 13.873 73.6125 13.4869 73.3117 13.1581C73.0222 12.8496 72.6721 12.6065 72.2841 12.4444C71.8962 12.2823 71.4789 12.2049 71.0596 12.2171V12.2184Z" fill="#E85451"/>
<path d="M77.7742 9.82539H80.6429V11.0154C81.1699 10.538 81.7661 10.146 82.4106 9.853C82.9251 9.63785 83.4759 9.5268 84.0322 9.52607C84.5689 9.51598 85.102 9.61779 85.5984 9.8252C86.0948 10.0326 86.5441 10.3412 86.9185 10.732C87.2741 11.145 87.5453 11.6256 87.7165 12.146C87.8877 12.6664 87.9554 13.2161 87.9156 13.7633V21.4373H85.077V16.3518C85.1145 15.4278 85.0538 14.5023 84.8959 13.5916C84.8023 13.1825 84.5772 12.8167 84.2563 12.5519C83.9311 12.3069 83.5339 12.1811 83.1293 12.1949C82.5741 12.1852 82.0373 12.3978 81.6351 12.7868C81.1919 13.232 80.8906 13.8021 80.7703 14.4233C80.6594 15.2033 80.6173 15.9917 80.6447 16.7793V21.441H77.776L77.7742 9.82539Z" fill="#E85451"/>
<path d="M97.407 9.82616H100.276V21.4387H97.407V20.2119C96.9202 20.7025 96.3491 21.0985 95.722 21.3804C95.1409 21.6223 94.5182 21.7439 93.8902 21.738C93.1661 21.7408 92.4498 21.5865 91.789 21.2856C91.1283 20.9846 90.5384 20.5439 90.0588 19.993C88.9771 18.82 88.396 17.2603 88.4421 15.6539C88.3797 14.0338 88.9407 12.4528 90.0063 11.2455C90.4805 10.6982 91.0655 10.2613 91.7214 9.96489C92.3773 9.66846 93.0884 9.51945 93.8063 9.52806C94.4704 9.52344 95.1283 9.65792 95.7389 9.92309C96.3658 10.204 96.9328 10.6063 97.4082 11.1075L97.407 9.82616ZM94.3909 12.2184C93.9766 12.2079 93.565 12.2877 93.1837 12.4524C92.8024 12.6172 92.4603 12.863 92.1805 13.1734C91.5824 13.8411 91.2664 14.7206 91.3005 15.6226C91.2673 16.5355 91.589 17.4249 92.1962 18.0988C92.474 18.4114 92.8145 18.6598 93.1949 18.8273C93.5753 18.9948 93.9866 19.0775 94.4012 19.0698C94.8201 19.0811 95.2365 19.0018 95.6229 18.8372C96.0093 18.6725 96.3569 18.4263 96.6424 18.1148C97.2529 17.4324 97.5729 16.5326 97.5326 15.6116C97.5514 15.1631 97.4824 14.7154 97.3296 14.2942C97.1768 13.873 96.9432 13.4869 96.6424 13.1581C96.3529 12.8496 96.0028 12.6065 95.6148 12.4444C95.2269 12.2823 94.8097 12.2049 94.3903 12.2171L94.3909 12.2184Z" fill="#E85451"/>
</svg>
